HIERARCHY
ROOT mixamorig:Hips
{
	OFFSET 0.000000 201.639420 0.000000
	CHANNELS 6 Xposition Yposition Zposition Xrotation Yrotation Zrotation
	JOINT mixamorig:Spine
	{
		OFFSET 0.006200 19.524994 -2.481800
		CHANNELS 3 Xrotation Yrotation Zrotation
		JOINT mixamorig:Spine1
		{
			OFFSET -0.000900 22.835007 -2.825400
			CHANNELS 3 Xrotation Yrotation Zrotation
			JOINT mixamorig:Spine2
			{
				OFFSET -0.020600 26.552490 -3.193300
				CHANNELS 3 Xrotation Yrotation Zrotation
				JOINT mixamorig:Neck
				{
					OFFSET -0.060000 30.701813 1.352200
					CHANNELS 3 Xrotation Yrotation Zrotation
					JOINT mixamorig:Head
					{
						OFFSET -0.087200 22.547607 3.670900
						CHANNELS 3 Xrotation Yrotation Zrotation
						JOINT mixamorig:HeadTop_End
						{
							OFFSET -0.830600 40.355194 7.893500
							CHANNELS 3 Xrotation Yrotation Zrotation
							End Site
							{
								OFFSET 0.000000 30.592346 0.000000
							}
						}
						JOINT mixamorig:RightEye
						{
							OFFSET -6.302100 18.118591 16.197100
							CHANNELS 3 Xrotation Yrotation Zrotation
							End Site
							{
								OFFSET 0.000000 30.592346 0.000000
							}
						}
						JOINT mixamorig:LeftEye
						{
							OFFSET 6.741500 18.382690 16.401899
							CHANNELS 3 Xrotation Yrotation Zrotation
							End Site
							{
								OFFSET 0.000000 30.592346 0.000000
							}
						}
					}
				}
				JOINT mixamorig:LeftShoulder
				{
					OFFSET 11.924900 18.230499 1.425400
					CHANNELS 3 Xrotation Yrotation Zrotation
					JOINT mixamorig:LeftArm
					{
						OFFSET 25.435989 -0.697632 -5.229300
						CHANNELS 3 Xrotation Yrotation Zrotation
						JOINT mixamorig:LeftForeArm
						{
							OFFSET 54.684776 0.000000 0.000000
							CHANNELS 3 Xrotation Yrotation Zrotation
							JOINT mixamorig:LeftHand
							{
								OFFSET 55.098175 0.000000 0.000000
								CHANNELS 3 Xrotation Yrotation Zrotation
								JOINT mixamorig:LeftHandMiddle1
								{
									OFFSET 23.369751 0.000000 0.000000
									CHANNELS 3 Xrotation Yrotation Zrotation
									JOINT mixamorig:LeftHandMiddle2
									{
										OFFSET 6.378677 0.000000 0.000000
										CHANNELS 3 Xrotation Yrotation Zrotation
										JOINT mixamorig:LeftHandMiddle3
										{
											OFFSET 6.148331 0.000000 0.000000
											CHANNELS 3 Xrotation Yrotation Zrotation
											JOINT mixamorig:LeftHandMiddle4
											{
												OFFSET 6.582504 0.000000 0.000000
												CHANNELS 3 Xrotation Yrotation Zrotation
												End Site
												{
													OFFSET -1.168900 6.395691 1.028606
												}
											}
										}
									}
								}
								JOINT mixamorig:LeftHandThumb1
								{
									OFFSET 7.235672 -3.848206 5.434273
									CHANNELS 3 Xrotation Yrotation Zrotation
									JOINT mixamorig:LeftHandThumb2
									{
										OFFSET 6.568451 -3.792297 3.792300
										CHANNELS 3 Xrotation Yrotation Zrotation
										JOINT mixamorig:LeftHandThumb3
										{
											OFFSET 6.063080 -3.500519 3.500518
											CHANNELS 3 Xrotation Yrotation Zrotation
											JOINT mixamorig:LeftHandThumb4
											{
												OFFSET 4.793182 -2.767334 2.767349
												CHANNELS 3 Xrotation Yrotation Zrotation
												End Site
												{
													OFFSET 0.101639 6.054260 1.275483
												}
											}
										}
									}
								}
								JOINT mixamorig:LeftHandIndex1
								{
									OFFSET 23.101074 -0.309540 4.992809
									CHANNELS 3 Xrotation Yrotation Zrotation
									JOINT mixamorig:LeftHandIndex2
									{
										OFFSET 6.226883 0.000000 0.000000
										CHANNELS 3 Xrotation Yrotation Zrotation
										JOINT mixamorig:LeftHandIndex3
										{
											OFFSET 6.094330 0.000000 0.000000
											CHANNELS 3 Xrotation Yrotation Zrotation
											JOINT mixamorig:LeftHandIndex4
											{
												OFFSET 5.482605 0.000000 0.000000
												CHANNELS 3 Xrotation Yrotation Zrotation
												End Site
												{
													OFFSET -1.427902 5.233032 0.797164
												}
											}
										}
									}
								}
								JOINT mixamorig:LeftHandRing1
								{
									OFFSET 22.299240 0.021149 -3.964172
									CHANNELS 3 Xrotation Yrotation Zrotation
									JOINT mixamorig:LeftHandRing2
									{
										OFFSET 6.321869 0.000000 0.000000
										CHANNELS 3 Xrotation Yrotation Zrotation
										JOINT mixamorig:LeftHandRing3
										{
											OFFSET 5.899796 0.000000 0.000000
											CHANNELS 3 Xrotation Yrotation Zrotation
											JOINT mixamorig:LeftHandRing4
											{
												OFFSET 6.517899 0.000000 0.000000
												CHANNELS 3 Xrotation Yrotation Zrotation
												End Site
												{
													OFFSET -1.637299 6.232208 0.980890
												}
											}
										}
									}
								}
								JOINT mixamorig:LeftHandPinky1
								{
									OFFSET 20.463791 -0.302338 -8.562233
									CHANNELS 3 Xrotation Yrotation Zrotation
									JOINT mixamorig:LeftHandPinky2
									{
										OFFSET 6.908646 0.000000 0.000000
										CHANNELS 3 Xrotation Yrotation Zrotation
										JOINT mixamorig:LeftHandPinky3
										{
											OFFSET 4.622849 0.000000 0.000000
											CHANNELS 3 Xrotation Yrotation Zrotation
											JOINT mixamorig:LeftHandPinky4
											{
												OFFSET 5.216080 0.000000 0.000000
												CHANNELS 3 Xrotation Yrotation Zrotation
												End Site
												{
													OFFSET -0.606308 5.116241 0.814926
												}
											}
										}
									}
								}
							}
						}
					}
				}
				JOINT mixamorig:RightShoulder
				{
					OFFSET -12.001300 18.284088 1.348900
					CHANNELS 3 Xrotation Yrotation Zrotation
					JOINT mixamorig:RightArm
					{
						OFFSET -25.308500 -0.751312 -5.164599
						CHANNELS 3 Xrotation Yrotation Zrotation
						JOINT mixamorig:RightForeArm
						{
							OFFSET -54.684429 0.000000 0.000000
							CHANNELS 3 Xrotation Yrotation Zrotation
							JOINT mixamorig:RightHand
							{
								OFFSET -55.150291 0.000000 0.000000
								CHANNELS 3 Xrotation Yrotation Zrotation
								JOINT mixamorig:RightHandMiddle1
								{
									OFFSET -23.317566 0.000000 0.000000
									CHANNELS 3 Xrotation Yrotation Zrotation
									JOINT mixamorig:RightHandMiddle2
									{
										OFFSET -6.378403 0.000000 0.000000
										CHANNELS 3 Xrotation Yrotation Zrotation
										JOINT mixamorig:RightHandMiddle3
										{
											OFFSET -6.148193 0.000000 0.000000
											CHANNELS 3 Xrotation Yrotation Zrotation
											JOINT mixamorig:RightHandMiddle4
											{
												OFFSET -6.583389 0.000000 0.000000
												CHANNELS 3 Xrotation Yrotation Zrotation
												End Site
												{
													OFFSET 1.171692 6.395905 1.029786
												}
											}
										}
									}
								}
								JOINT mixamorig:RightHandThumb1
								{
									OFFSET -7.190521 -3.860474 5.435846
									CHANNELS 3 Xrotation Yrotation Zrotation
									JOINT mixamorig:RightHandThumb2
									{
										OFFSET -6.567429 -3.791718 3.791708
										CHANNELS 3 Xrotation Yrotation Zrotation
										JOINT mixamorig:RightHandThumb3
										{
											OFFSET -6.062469 -3.500153 3.500166
											CHANNELS 3 Xrotation Yrotation Zrotation
											JOINT mixamorig:RightHandThumb4
											{
												OFFSET -4.792618 -2.767029 2.767022
												CHANNELS 3 Xrotation Yrotation Zrotation
												End Site
												{
													OFFSET -0.100327 6.053253 1.276754
												}
											}
										}
									}
								}
								JOINT mixamorig:RightHandIndex1
								{
									OFFSET -23.048981 -0.310791 4.992554
									CHANNELS 3 Xrotation Yrotation Zrotation
									JOINT mixamorig:RightHandIndex2
									{
										OFFSET -6.227539 0.000000 0.000000
										CHANNELS 3 Xrotation Yrotation Zrotation
										JOINT mixamorig:RightHandIndex3
										{
											OFFSET -6.095047 0.000000 0.000000
											CHANNELS 3 Xrotation Yrotation Zrotation
											JOINT mixamorig:RightHandIndex4
											{
												OFFSET -5.484772 0.000000 0.000000
												CHANNELS 3 Xrotation Yrotation Zrotation
												End Site
												{
													OFFSET 1.420593 5.237305 0.797056
												}
											}
										}
									}
								}
								JOINT mixamorig:RightHandRing1
								{
									OFFSET -22.246323 0.020569 -3.963762
									CHANNELS 3 Xrotation Yrotation Zrotation
									JOINT mixamorig:RightHandRing2
									{
										OFFSET -6.322128 0.000000 0.000000
										CHANNELS 3 Xrotation Yrotation Zrotation
										JOINT mixamorig:RightHandRing3
										{
											OFFSET -5.900024 0.000000 0.000000
											CHANNELS 3 Xrotation Yrotation Zrotation
											JOINT mixamorig:RightHandRing4
											{
												OFFSET -6.518356 0.000000 0.000000
												CHANNELS 3 Xrotation Yrotation Zrotation
												End Site
												{
													OFFSET 1.636398 6.232697 0.982186
												}
											}
										}
									}
								}
								JOINT mixamorig:RightHandPinky1
								{
									OFFSET -20.411011 -0.303314 -8.561701
									CHANNELS 3 Xrotation Yrotation Zrotation
									JOINT mixamorig:RightHandPinky2
									{
										OFFSET -6.907349 0.000000 0.000000
										CHANNELS 3 Xrotation Yrotation Zrotation
										JOINT mixamorig:RightHandPinky3
										{
											OFFSET -4.623840 0.000000 0.000000
											CHANNELS 3 Xrotation Yrotation Zrotation
											JOINT mixamorig:RightHandPinky4
											{
												OFFSET -5.218353 0.000000 0.000000
												CHANNELS 3 Xrotation Yrotation Zrotation
												End Site
												{
													OFFSET 0.602097 5.118835 0.816273
												}
											}
										}
									}
								}
							}
						}
					}
				}
			}
		}
	}
	JOINT mixamorig:LeftUpLeg
	{
		OFFSET 18.168400 -13.561905 -0.039000
		CHANNELS 3 Xrotation Yrotation Zrotation
		JOINT mixamorig:LeftLeg
		{
			OFFSET 0.577358 -80.825211 -3.695000
			CHANNELS 3 Xrotation Yrotation Zrotation
			JOINT mixamorig:LeftFoot
			{
				OFFSET -0.577356 -83.370262 -6.520700
				CHANNELS 3 Xrotation Yrotation Zrotation
				JOINT mixamorig:LeftToeBase
				{
					OFFSET 0.750401 -20.798306 25.135401
					CHANNELS 3 Xrotation Yrotation Zrotation
					JOINT mixamorig:LeftToe_End
					{
						OFFSET -0.000500 0.001200 19.917799
						CHANNELS 3 Xrotation Yrotation Zrotation
						End Site
						{
							OFFSET 0.000000 19.917805 0.000000
						}
					}
				}
			}
		}
	}
	JOINT mixamorig:RightUpLeg
	{
		OFFSET -18.162500 -13.585098 -0.041000
		CHANNELS 3 Xrotation Yrotation Zrotation
		JOINT mixamorig:RightLeg
		{
			OFFSET -0.595024 -80.945297 -3.631900
			CHANNELS 3 Xrotation Yrotation Zrotation
			JOINT mixamorig:RightFoot
			{
				OFFSET 0.595024 -83.218193 -6.561200
				CHANNELS 3 Xrotation Yrotation Zrotation
				JOINT mixamorig:RightToeBase
				{
					OFFSET -0.753601 -20.807106 25.115000
					CHANNELS 3 Xrotation Yrotation Zrotation
					JOINT mixamorig:RightToe_End
					{
						OFFSET 0.000299 0.001700 19.918200
						CHANNELS 3 Xrotation Yrotation Zrotation
						End Site
						{
							OFFSET 0.000000 19.918203 0.000000
						}
					}
				}
			}
		}
	}
}
MOTION
Frames: 4
Frame Time: 0.033333
-5.359405 185.849396 -23.745075 15.831996 -4.053923 -0.391664 0.362555 0.734108 -1.476053 0.636430 1.821085 -2.318891 0.638262 1.823742 -2.316334 -1.472509 0.099772 3.009345 -0.377462 5.512136 -4.336851 0.000001 0.000000 -0.000001 0.000001 0.000000 -0.000001 0.000001 0.000000 -0.000001 0.360189 2.455132 -3.076565 -42.779698 -18.686484 -73.901178 -0.000014 -32.101503 -0.000039 32.955622 -38.789221 21.774196 -0.000000 -0.001935 0.015984 0.000005 0.001935 -0.015983 -0.000001 -0.000008 -0.000004 0.000005 0.000002 -0.000000 -1.540046 3.690180 6.142364 3.939044 7.948697 0.746802 -0.579456 1.574990 2.538712 0.000001 -0.000000 0.000000 -0.000001 -0.000001 0.000002 -0.000001 -0.000009 0.000005 0.000012 0.000008 0.000002 -0.000002 -0.000000 0.000000 -0.000005 -0.000006 0.000001 0.000001 0.000000 -0.000025 0.000001 0.000002 -0.000006 0.000000 0.000000 -0.000000 -0.018091 4.054239 0.511065 -0.018091 -4.054241 -0.511062 0.000004 0.000004 0.000003 0.000002 0.000001 0.000001 -0.359828 -8.426900 9.978024 -7.597807 0.652484 60.625463 -0.000045 73.807816 0.000025 34.281167 -23.697065 38.665165 -0.000008 -0.000004 -0.000000 -0.000002 0.000002 -0.000008 -0.000011 -0.000004 0.000006 0.000004 -0.000001 -0.000000 -1.849249 -3.581791 -6.586140 4.637202 -8.634146 -0.225417 -1.273763 0.137311 -2.094862 -0.000002 0.000002 -0.000001 -0.000004 -0.000001 0.000002 -0.000003 -0.000009 0.000005 0.000007 0.000007 0.000005 -0.000001 0.000003 -0.000003 0.000001 0.000005 0.000008 0.000001 -0.000004 -0.000000 -0.000006 0.000002 0.000003 -0.000004 -0.000002 0.000002 -0.000004 -0.000001 -0.000000 -0.000003 -0.000001 -0.000000 -0.000003 -0.000001 0.000009 0.000002 -0.000003 -0.000000 -41.522991 10.182899 -2.248546 47.181847 9.820484 -9.795668 -23.743647 29.943672 11.574542 -6.352674 0.000007 0.000198 0.000000 0.000002 0.000000 -0.410604 -7.022251 5.856489 15.395793 -10.678798 0.480315 -22.253503 -16.272779 0.422994 -11.056427 -0.000001 -0.000002 -0.000000 -0.000001 -0.000000 
-4.919166 184.578430 -24.979340 16.141812 -9.560688 -0.551682 0.560001 1.185265 -1.327063 1.073565 2.781568 -2.534682 1.074963 2.783872 -2.531564 -2.112487 0.371918 3.318562 -3.583595 7.337831 -4.619420 0.000001 0.000000 -0.000000 0.000001 0.000000 -0.000000 0.000001 0.000000 -0.000000 0.401734 2.230153 -3.311584 -35.619167 -10.457001 -70.485681 0.000004 -15.000166 0.000008 29.764776 -42.497444 25.442137 0.000014 -0.014554 0.120540 0.000003 0.001936 -0.015981 -0.000007 -0.000007 -0.000004 0.000006 0.000001 0.000001 -1.546145 3.447755 6.213042 3.939046 7.948696 0.746800 -0.579456 1.574991 2.538712 -0.000002 -0.000000 0.000000 0.000008 -0.012616 0.104553 -0.000010 -0.000008 0.000005 0.000001 0.000005 0.000001 0.000001 -0.000001 -0.000002 0.000002 -0.012618 0.104551 0.000005 0.000001 -0.000025 -0.000000 -0.000000 -0.000008 0.000001 0.000000 -0.000001 -0.025495 4.041599 0.615875 -0.018089 -4.054240 -0.511063 0.000004 0.000003 0.000004 -0.000004 0.000000 0.000001 -0.356438 -8.608837 9.558900 -16.313092 8.187876 64.953562 0.000047 75.469048 -0.000028 5.685402 -18.653445 6.996136 0.000011 -0.000008 -0.000023 -0.000002 0.000002 -0.000005 -0.000007 -0.000002 0.000007 0.000000 -0.000001 -0.000000 -1.849243 -3.581787 -6.586138 4.637205 -8.634145 -0.225419 -1.273758 0.137307 -2.094861 -0.000002 0.000005 0.000001 0.000012 -0.000012 -0.000017 -0.000003 -0.000005 0.000001 0.000005 0.000000 0.000004 0.000002 -0.000004 -0.000000 0.000011 0.000001 -0.000011 -0.000003 -0.000004 -0.000000 -0.000004 -0.000002 -0.000000 0.000000 -0.000003 -0.000002 0.000011 -0.000006 -0.000017 0.000004 -0.000001 0.000001 -0.000003 -0.000006 0.000006 0.000000 -0.000000 -0.000001 -42.246533 11.713878 0.473254 48.390722 10.587977 -9.713956 -27.765054 28.953735 12.359782 -4.435252 0.000008 0.000002 -0.000000 -0.000001 0.000000 -0.939981 -5.959629 5.643667 15.383420 -10.548552 -1.254531 -23.784930 -10.850140 4.364698 -9.040558 -0.000016 0.000002 0.000000 0.000001 0.000000 
-3.607710 187.402084 -24.714973 16.440359 -13.540975 -0.847566 0.735542 1.413278 -1.970347 1.303630 3.309708 -2.511667 1.310984 3.313108 -2.503511 -2.314960 0.491257 4.105115 -5.464779 8.897116 -4.258374 -0.000001 0.000001 -0.000001 -0.000001 0.000001 -0.000001 -0.000001 0.000001 -0.000001 0.488423 1.639132 -3.277111 -24.780613 -1.410036 -68.937830 0.000003 -3.557055 0.000030 23.744087 -41.161893 25.880925 0.000029 -0.022110 0.183202 0.000004 0.001943 -0.015979 -0.000002 -0.000001 -0.000009 -0.000000 -0.000001 0.000001 -1.549443 3.302502 6.255416 3.939044 7.948698 0.746806 -0.579457 1.574996 2.538710 0.000003 -0.000000 -0.000001 0.000026 -0.020178 0.167209 -0.000006 -0.000011 0.000004 0.000002 0.000005 0.000004 0.000001 -0.000002 -0.000001 0.000026 -0.020181 0.167217 0.000006 0.000001 -0.000024 -0.000000 0.000005 -0.000008 0.000001 -0.000004 0.000000 -0.029916 4.033991 0.678678 -0.018085 -4.054239 -0.511061 -0.000002 0.000006 0.000004 0.000000 0.000001 0.000001 -0.402124 -8.907261 9.436759 -19.021401 12.781236 65.711911 -0.000013 76.906298 -0.000004 0.365516 -9.833979 3.270733 0.000001 0.000001 0.000000 -0.000002 -0.000001 -0.000003 -0.000009 -0.000002 0.000007 0.000002 -0.000001 -0.000000 -1.849250 -3.581796 -6.586136 4.637204 -8.634145 -0.225416 -1.273763 0.137318 -2.094861 -0.000005 -0.000002 0.000000 0.000000 0.000002 0.000008 -0.000001 -0.000003 -0.000000 0.000000 0.000004 0.000004 0.000002 -0.000003 -0.000002 -0.000003 -0.000003 0.000003 0.000004 -0.000002 -0.000003 0.000000 -0.000000 0.000004 -0.000001 0.000001 0.000000 0.000004 -0.000001 -0.000008 0.000002 0.000002 0.000001 -0.000004 0.000002 0.000006 -0.000002 -0.000002 0.000002 -41.169778 11.704327 1.773234 45.422257 10.713857 -9.668483 -24.426406 28.910794 11.688447 -6.088710 -0.000002 0.000002 0.000000 0.000003 0.000000 -2.778756 -5.711471 4.174884 15.975859 -10.810120 -1.773895 -16.791902 -4.017411 9.445481 -16.719847 -0.000002 0.000000 -0.000001 -0.000002 -0.000000 
-2.161875 192.599197 -23.500793 16.061432 -14.872346 -0.117323 1.030710 1.265270 -3.891507 1.631707 3.225077 -2.770582 1.653723 3.228898 -2.753889 -2.209413 0.378414 5.342171 -5.782395 9.819432 -3.577156 -0.000000 0.000000 0.000000 -0.000000 0.000000 0.000000 -0.000000 0.000000 0.000000 0.621346 0.942944 -3.297294 -10.966259 7.455851 -69.865500 -0.000001 -0.000001 0.000013 19.379477 -34.385156 24.061828 0.000015 -0.015141 0.125458 0.000003 0.001935 -0.015984 -0.000004 -0.000008 -0.000004 0.000001 0.000001 0.000001 -1.546384 3.436368 6.216355 3.939044 7.948699 0.746797 -0.579454 1.574990 2.538713 0.000000 -0.000000 -0.000000 0.000009 -0.013210 0.109467 -0.000007 -0.000005 0.000002 0.000003 0.000005 0.000003 -0.000001 -0.000000 0.000000 0.000009 -0.013209 0.109476 0.000002 -0.000000 -0.000029 -0.000000 -0.000000 -0.000003 -0.000000 -0.000001 0.000002 -0.025838 4.040998 0.620787 -0.018086 -4.054241 -0.511063 0.000001 0.000001 -0.000001 -0.000001 0.000001 0.000002 -0.513023 -9.317652 9.683934 -14.522241 13.868107 61.917960 0.000016 77.258237 -0.000050 8.964438 -5.892083 16.020028 -0.000000 -0.000009 -0.000009 0.000002 -0.000000 -0.000003 -0.000010 -0.000002 0.000004 0.000000 0.000002 -0.000001 -1.849254 -3.581799 -6.586125 4.637209 -8.634145 -0.225417 -1.273756 0.137313 -2.094862 -0.000003 -0.000004 0.000001 -0.000003 -0.000007 -0.000002 -0.000004 -0.000008 0.000003 0.000002 0.000005 0.000002 -0.000004 -0.000001 -0.000002 -0.000007 -0.000005 0.000002 0.000001 -0.000002 -0.000002 0.000004 -0.000000 0.000001 -0.000004 -0.000002 0.000001 0.000009 -0.000011 -0.000007 -0.000005 -0.000001 0.000004 -0.000003 -0.000003 0.000011 0.000002 -0.000003 0.000001 -37.831513 9.610357 -0.406893 39.667782 10.773064 -7.565076 -15.023525 29.003924 8.062001 -12.783796 0.000009 0.000001 0.000000 0.000002 0.000000 -6.027250 -6.298340 1.005147 19.144752 -5.560021 -1.658419 -4.285687 -0.937375 9.476108 -28.902167 -0.000001 -0.000000 0.000000 0.000001 0.000000 
